<mxfile host="app.diagrams.net" agent="Mozilla/5.0 (Windows NT 10.0; Win64; x64) AppleWebKit/537.36 (KHTML, like Gecko) Chrome/134.0.0.0 Safari/537.36" version="26.1.1">
  <diagram name="Page-1" id="wo_PyHSAiUrWYHA0a5fP">
    <mxGraphModel dx="1909" dy="1013" grid="1" gridSize="10" guides="1" tooltips="1" connect="1" arrows="1" fold="1" page="1" pageScale="1" pageWidth="850" pageHeight="1100" math="0" shadow="0">
      <root>
        <mxCell id="0" />
        <mxCell id="1" parent="0" />
        <mxCell id="nDfccosQX7OUlKeGl7O3-7" style="edgeStyle=orthogonalEdgeStyle;rounded=0;orthogonalLoop=1;jettySize=auto;html=1;entryX=0.5;entryY=0;entryDx=0;entryDy=0;strokeWidth=4;" edge="1" parent="1" source="nDfccosQX7OUlKeGl7O3-1" target="nDfccosQX7OUlKeGl7O3-2">
          <mxGeometry relative="1" as="geometry" />
        </mxCell>
        <mxCell id="nDfccosQX7OUlKeGl7O3-1" value="&lt;font style=&quot;font-size: 36px;&quot;&gt;Declare Pedometer Class that is designed to track amount of miles walked&lt;/font&gt;" style="rounded=1;whiteSpace=wrap;html=1;" vertex="1" parent="1">
          <mxGeometry x="40" y="80" width="760" height="150" as="geometry" />
        </mxCell>
        <mxCell id="nDfccosQX7OUlKeGl7O3-2" value="&lt;font style=&quot;font-size: 36px;&quot;&gt;Create stepsToMiles method that converts given amount of steps to miles using the ratio that 1 mile equals around 2000 steps&lt;/font&gt;" style="rounded=1;whiteSpace=wrap;html=1;" vertex="1" parent="1">
          <mxGeometry x="40" y="300" width="760" height="140" as="geometry" />
        </mxCell>
        <mxCell id="nDfccosQX7OUlKeGl7O3-3" value="&lt;font style=&quot;font-size: 36px;&quot;&gt;Design an exception that throws and prints a line if the amount of steps that is given is less than 0&lt;/font&gt;" style="rounded=1;whiteSpace=wrap;html=1;" vertex="1" parent="1">
          <mxGeometry x="50" y="500" width="760" height="150" as="geometry" />
        </mxCell>
        <mxCell id="nDfccosQX7OUlKeGl7O3-4" value="&lt;font style=&quot;font-size: 36px;&quot;&gt;Use main method to create variables that store desired steps and use the stepsToMiles method to convert the desired steps into miles&lt;/font&gt;" style="rounded=1;whiteSpace=wrap;html=1;" vertex="1" parent="1">
          <mxGeometry x="60" y="710" width="750" height="140" as="geometry" />
        </mxCell>
        <mxCell id="nDfccosQX7OUlKeGl7O3-5" value="&lt;font style=&quot;font-size: 36px;&quot;&gt;Print out the variable that stored what the stepsToMiles method returned&lt;/font&gt;" style="rounded=1;whiteSpace=wrap;html=1;" vertex="1" parent="1">
          <mxGeometry x="60" y="910" width="760" height="140" as="geometry" />
        </mxCell>
        <mxCell id="nDfccosQX7OUlKeGl7O3-8" style="edgeStyle=orthogonalEdgeStyle;rounded=0;orthogonalLoop=1;jettySize=auto;html=1;entryX=0.487;entryY=-0.021;entryDx=0;entryDy=0;entryPerimeter=0;strokeWidth=4;" edge="1" parent="1" source="nDfccosQX7OUlKeGl7O3-2" target="nDfccosQX7OUlKeGl7O3-3">
          <mxGeometry relative="1" as="geometry" />
        </mxCell>
        <mxCell id="nDfccosQX7OUlKeGl7O3-9" style="edgeStyle=orthogonalEdgeStyle;rounded=0;orthogonalLoop=1;jettySize=auto;html=1;entryX=0.494;entryY=-0.014;entryDx=0;entryDy=0;entryPerimeter=0;strokeWidth=4;" edge="1" parent="1" source="nDfccosQX7OUlKeGl7O3-3" target="nDfccosQX7OUlKeGl7O3-4">
          <mxGeometry relative="1" as="geometry" />
        </mxCell>
        <mxCell id="nDfccosQX7OUlKeGl7O3-10" style="edgeStyle=orthogonalEdgeStyle;rounded=0;orthogonalLoop=1;jettySize=auto;html=1;entryX=0.493;entryY=0;entryDx=0;entryDy=0;entryPerimeter=0;strokeWidth=4;" edge="1" parent="1" source="nDfccosQX7OUlKeGl7O3-4" target="nDfccosQX7OUlKeGl7O3-5">
          <mxGeometry relative="1" as="geometry" />
        </mxCell>
      </root>
    </mxGraphModel>
  </diagram>
</mxfile>
